M48
;GenerationSoftware,Autodesk,EAGLE,9.5.0*%
;CreationDate,2019-11-14T23:53:21Z*%
FMAT,2
ICI,OFF
INCH,TZ,000.000
T3C0.031
T2C0.032
T1C0.040
%
G90
M72
T1
X450Y1100
X350Y1100
X250Y1100
X400Y850
X400Y750
X400Y650
X400Y550
X400Y450
X400Y350
X700Y500
X550Y850
X600Y1100
X700Y1100
X800Y1100
X700Y950
X700Y850
X700Y750
X550Y750
X550Y950
X700Y200
X700Y300
X700Y400
T2
X550Y600
X550Y300
T3
X825Y175
X825Y275
X825Y375
X525Y175
X425Y175
X225Y775
X225Y875
X225Y975
X825Y475
X825Y575
X225Y175
X825Y775
X825Y875
X825Y975
X225Y275
X325Y175
X225Y375
X225Y475
X225Y575
X225Y675
X825Y675
M30