M48
;GenerationSoftware,Autodesk,EAGLE,9.5.0*%
;CreationDate,2020-01-27T17:32:09Z*%
FMAT,2
ICI,OFF
INCH,TZ,000.000
T3C0.032
T2C0.040
T1C0.051
%
G90
M72
T1
X672Y1680
X928Y1680
T2
X160Y920
X160Y1420
X160Y1320
X160Y1220
X160Y1120
X160Y1020
X760Y320
X160Y820
X160Y720
X160Y620
X160Y520
X160Y420
X160Y320
X760Y420
X760Y520
X760Y620
X760Y720
X760Y820
X760Y920
X760Y1020
X760Y1120
X760Y1220
X760Y1320
X760Y1420
X648Y564
X648Y664
X648Y1076
X648Y976
X210Y1520
X310Y1520
X410Y1520
X510Y1520
X610Y1520
X710Y1520
X890Y1110
X890Y1010
X890Y910
X950Y420
X950Y320
X950Y220
X720Y190
X620Y190
X520Y190
X420Y190
X320Y190
X220Y190
X430Y780
X430Y880
X430Y980
X430Y1080
X380Y1690
X480Y1690
T3
X580Y880
X580Y1180
M30