M48
;GenerationSoftware,Autodesk,EAGLE,9.5.0*%
;CreationDate,2019-11-14T23:38:01Z*%
FMAT,2
ICI,OFF
METRIC,TZ,000.000
T3C0.800
T2C0.813
T1C1.016
%
G90
M71
T1
X11430Y27940
X8890Y27940
X6350Y27940
X10160Y21590
X10160Y19050
X10160Y16510
X10160Y13970
X10160Y11430
X10160Y8890
X17780Y12700
X13970Y21590
X15240Y27940
X17780Y27940
X20320Y27940
X17780Y24130
X17780Y21590
X17780Y19050
X13970Y19050
X13970Y24130
X17780Y5080
X17780Y7620
X17780Y10160
T2
X13970Y15240
X13970Y7620
T3
X20955Y4445
X20955Y6985
X20955Y9525
X13335Y4445
X10795Y4445
X5715Y19685
X5715Y22225
X5715Y24765
X20955Y12065
X20955Y14605
X5715Y4445
X20955Y19685
X20955Y22225
X20955Y24765
X5715Y6985
X8255Y4445
X5715Y9525
X5715Y12065
X5715Y14605
X5715Y17145
X20955Y17145
M30